<svg width="19" height="17" viewBox="0 0 19 17" fill="none" xmlns="http://www.w3.org/2000/svg">
<path d="M16.3846 2.28541C15.9773 1.8779 15.4936 1.55463 14.9614 1.33408C14.4291 1.11352 13.8585 1 13.2824 1C12.7062 1 12.1357 1.11352 11.6034 1.33408C11.0711 1.55463 10.5874 1.8779 10.1801 2.28541L9.33479 3.13075L8.48945 2.28541C7.66669 1.46265 6.55078 1.00043 5.38722 1.00043C4.22366 1.00043 3.10775 1.46265 2.28499 2.28541C1.46222 3.10818 1 4.22408 1 5.38764C1 6.55121 1.46222 7.66711 2.28499 8.48988L3.13032 9.33521L9.33479 15.5397L15.5392 9.33521L16.3846 8.48988C16.7921 8.08255 17.1154 7.59893 17.3359 7.06664C17.5565 6.53435 17.67 5.96382 17.67 5.38764C17.67 4.81147 17.5565 4.24094 17.3359 3.70865C17.1154 3.17636 16.7921 2.69273 16.3846 2.28541V2.28541Z" stroke="#01040D" stroke-width="1.4" stroke-linecap="round" stroke-linejoin="round"/>
</svg>
