<svg width="151" height="197" viewBox="0 0 151 197" fill="none" xmlns="http://www.w3.org/2000/svg">
<g clip-path="url(#clip0_86_2674)">
<path d="M73.5697 136.529L50.9899 136.698L55.7761 92.6833L76.2726 92.6372C91.1279 92.6014 99.4053 98.9762 100.429 112.141C101.755 129.125 91.8189 136.391 73.5697 136.529ZM151 175.94C151 179.555 148.066 182.489 144.452 182.489C144.447 182.489 144.442 182.489 144.437 182.489H53.9896L44.8112 197L46.9356 176.298L48.9064 155.694L76.2726 155.428C106.024 155.136 123.326 141.245 123.183 112.371C123.183 88.1108 106.516 72.8061 79.5231 72.8061H34.7473L23.8131 182.489H23.7773L22.6255 193.672L19.0064 182.489H6.54679C4.70907 182.489 2.95325 181.716 1.71446 180.359C0.475663 179.002 -0.138616 177.184 0.0251918 175.356L11.1692 51.1983C11.4713 47.8189 14.3021 45.2331 17.6908 45.2331H40.5983V34.9105C40.6034 15.658 56.2573 0 75.4996 0C94.7419 0 110.396 15.658 110.396 34.9105V45.2382H133.288C136.677 45.2382 139.507 47.824 139.809 51.2034L150.913 174.87C150.969 175.218 151 175.576 151 175.94ZM97.3014 34.9105C97.3014 22.8828 87.5241 13.103 75.4996 13.103C63.4802 13.103 53.7029 22.8879 53.7029 34.9105V45.2382H97.3014V34.9105Z" fill="#F4F6FA"/>
<path opacity="0.15" d="M53.6983 42.8882H40.6039V45.2384H53.6983V42.8882Z" fill="#6B250F"/>
<path opacity="0.15" d="M110.396 42.8882H97.3019V45.2384H110.396V42.8882Z" fill="#6B250F"/>
</g>
<defs>
<clipPath id="clip0_86_2674">
<rect width="151" height="197" fill="white"/>
</clipPath>
</defs>
</svg>
